<mxfile host="app.diagrams.net" modified="2023-06-28T16:53:57.836Z" agent="Mozilla/5.0 (Windows NT 10.0; Win64; x64) AppleWebKit/537.36 (KHTML, like Gecko) Chrome/114.0.0.0 Safari/537.36" etag="WEFZkrhi3v2mD9jdo0DU" version="21.5.1" type="device">
  <diagram name="Page-1" id="b5b7bab2-c9e2-2cf4-8b2a-24fd1a2a6d21">
    <mxGraphModel dx="2261" dy="2003" grid="1" gridSize="10" guides="1" tooltips="1" connect="1" arrows="1" fold="1" page="1" pageScale="1" pageWidth="827" pageHeight="1169" background="#ffffff" math="0" shadow="0">
      <root>
        <mxCell id="0" />
        <mxCell id="1" parent="0" />
        <mxCell id="K1kgJDvs7Ww0QvkJPQkk-11" value="" style="group" vertex="1" connectable="0" parent="1">
          <mxGeometry x="-618" y="90" width="205" height="620" as="geometry" />
        </mxCell>
        <mxCell id="K1kgJDvs7Ww0QvkJPQkk-2" value="" style="image;aspect=fixed;perimeter=ellipsePerimeter;html=1;align=center;shadow=0;dashed=0;spacingTop=3;image=img/lib/active_directory/laptop_client.svg;movable=1;resizable=1;rotatable=1;deletable=1;editable=1;locked=0;connectable=1;" vertex="1" parent="K1kgJDvs7Ww0QvkJPQkk-11">
          <mxGeometry x="75" y="70" width="45" height="50" as="geometry" />
        </mxCell>
        <mxCell id="K1kgJDvs7Ww0QvkJPQkk-3" value="" style="image;aspect=fixed;perimeter=ellipsePerimeter;html=1;align=center;shadow=0;dashed=0;spacingTop=3;image=img/lib/active_directory/laptop_client.svg;movable=1;resizable=1;rotatable=1;deletable=1;editable=1;locked=0;connectable=1;" vertex="1" parent="K1kgJDvs7Ww0QvkJPQkk-11">
          <mxGeometry x="75" y="169" width="45" height="50" as="geometry" />
        </mxCell>
        <mxCell id="K1kgJDvs7Ww0QvkJPQkk-4" value="" style="image;aspect=fixed;perimeter=ellipsePerimeter;html=1;align=center;shadow=0;dashed=0;spacingTop=3;image=img/lib/active_directory/laptop_client.svg;movable=1;resizable=1;rotatable=1;deletable=1;editable=1;locked=0;connectable=1;" vertex="1" parent="K1kgJDvs7Ww0QvkJPQkk-11">
          <mxGeometry x="75" y="270" width="45" height="50" as="geometry" />
        </mxCell>
        <mxCell id="K1kgJDvs7Ww0QvkJPQkk-5" value="" style="rounded=0;whiteSpace=wrap;html=1;fillColor=none;movable=1;resizable=1;rotatable=1;deletable=1;editable=1;locked=0;connectable=1;container=0;" vertex="1" parent="K1kgJDvs7Ww0QvkJPQkk-11">
          <mxGeometry width="205" height="620" as="geometry" />
        </mxCell>
        <mxCell id="K1kgJDvs7Ww0QvkJPQkk-7" value="&lt;font style=&quot;font-size: 24px;&quot;&gt;Client Apps&lt;/font&gt;" style="text;html=1;align=center;verticalAlign=middle;resizable=0;points=[];autosize=1;strokeColor=none;fillColor=none;" vertex="1" parent="K1kgJDvs7Ww0QvkJPQkk-11">
          <mxGeometry x="32.5" y="13" width="140" height="40" as="geometry" />
        </mxCell>
        <mxCell id="K1kgJDvs7Ww0QvkJPQkk-8" value="" style="image;aspect=fixed;perimeter=ellipsePerimeter;html=1;align=center;shadow=0;dashed=0;spacingTop=3;image=img/lib/active_directory/laptop_client.svg;" vertex="1" parent="K1kgJDvs7Ww0QvkJPQkk-11">
          <mxGeometry x="75" y="380" width="45" height="50" as="geometry" />
        </mxCell>
        <mxCell id="K1kgJDvs7Ww0QvkJPQkk-10" value="" style="image;aspect=fixed;perimeter=ellipsePerimeter;html=1;align=center;shadow=0;dashed=0;spacingTop=3;image=img/lib/active_directory/mac_client.svg;" vertex="1" parent="K1kgJDvs7Ww0QvkJPQkk-11">
          <mxGeometry x="79" y="494.5" width="47" height="50" as="geometry" />
        </mxCell>
        <mxCell id="K1kgJDvs7Ww0QvkJPQkk-13" value="&lt;font style=&quot;font-size: 18px;&quot;&gt;Instance1&lt;/font&gt;" style="outlineConnect=0;dashed=0;verticalLabelPosition=bottom;verticalAlign=top;align=center;html=1;shape=mxgraph.aws3.instance;fillColor=#F58534;gradientColor=none;" vertex="1" parent="1">
          <mxGeometry x="10" y="410" width="100" height="60" as="geometry" />
        </mxCell>
        <mxCell id="K1kgJDvs7Ww0QvkJPQkk-14" value="" style="endArrow=classic;html=1;rounded=0;exitX=1;exitY=0.75;exitDx=0;exitDy=0;startArrow=classic;startFill=1;" edge="1" parent="1" source="K1kgJDvs7Ww0QvkJPQkk-5" target="K1kgJDvs7Ww0QvkJPQkk-1">
          <mxGeometry width="50" height="50" relative="1" as="geometry">
            <mxPoint x="-250" y="400" as="sourcePoint" />
            <mxPoint x="-280" y="555" as="targetPoint" />
          </mxGeometry>
        </mxCell>
        <mxCell id="K1kgJDvs7Ww0QvkJPQkk-21" value="" style="endArrow=classic;html=1;rounded=0;startArrow=classic;startFill=1;" edge="1" parent="1" source="K1kgJDvs7Ww0QvkJPQkk-1" target="K1kgJDvs7Ww0QvkJPQkk-13">
          <mxGeometry width="50" height="50" relative="1" as="geometry">
            <mxPoint x="-50" y="400" as="sourcePoint" />
            <mxPoint y="350" as="targetPoint" />
          </mxGeometry>
        </mxCell>
        <mxCell id="K1kgJDvs7Ww0QvkJPQkk-22" value="&lt;font style=&quot;font-size: 18px;&quot;&gt;Instance2&lt;/font&gt;" style="outlineConnect=0;dashed=0;verticalLabelPosition=bottom;verticalAlign=top;align=center;html=1;shape=mxgraph.aws3.instance;fillColor=#F58534;gradientColor=none;" vertex="1" parent="1">
          <mxGeometry x="170" y="460" width="100" height="60" as="geometry" />
        </mxCell>
        <mxCell id="K1kgJDvs7Ww0QvkJPQkk-23" value="&lt;font style=&quot;font-size: 18px;&quot;&gt;InstanceN...&lt;/font&gt;" style="outlineConnect=0;dashed=0;verticalLabelPosition=bottom;verticalAlign=top;align=center;html=1;shape=mxgraph.aws3.instance;fillColor=#F58534;gradientColor=none;" vertex="1" parent="1">
          <mxGeometry x="10" y="540" width="100" height="60" as="geometry" />
        </mxCell>
        <mxCell id="K1kgJDvs7Ww0QvkJPQkk-24" value="" style="endArrow=classic;html=1;rounded=0;startArrow=classic;startFill=1;" edge="1" parent="1" source="K1kgJDvs7Ww0QvkJPQkk-1" target="K1kgJDvs7Ww0QvkJPQkk-22">
          <mxGeometry width="50" height="50" relative="1" as="geometry">
            <mxPoint x="-108" y="541" as="sourcePoint" />
            <mxPoint x="40" y="465" as="targetPoint" />
          </mxGeometry>
        </mxCell>
        <mxCell id="K1kgJDvs7Ww0QvkJPQkk-25" value="" style="endArrow=classic;html=1;rounded=0;startArrow=classic;startFill=1;" edge="1" parent="1" source="K1kgJDvs7Ww0QvkJPQkk-1" target="K1kgJDvs7Ww0QvkJPQkk-23">
          <mxGeometry width="50" height="50" relative="1" as="geometry">
            <mxPoint x="-98" y="551" as="sourcePoint" />
            <mxPoint x="40" y="550" as="targetPoint" />
          </mxGeometry>
        </mxCell>
        <mxCell id="K1kgJDvs7Ww0QvkJPQkk-16" value="&lt;font style=&quot;font-size: 18px;&quot;&gt;&lt;b&gt;Nginx Load&amp;nbsp;&lt;br&gt;Balancer&lt;/b&gt;&lt;/font&gt;" style="text;html=1;align=center;verticalAlign=middle;resizable=0;points=[];autosize=1;strokeColor=none;fillColor=none;" vertex="1" parent="1">
          <mxGeometry x="-225" y="460" width="130" height="60" as="geometry" />
        </mxCell>
        <mxCell id="K1kgJDvs7Ww0QvkJPQkk-19" value="" style="group" vertex="1" connectable="0" parent="1">
          <mxGeometry x="-370" y="510" width="252" height="84" as="geometry" />
        </mxCell>
        <mxCell id="K1kgJDvs7Ww0QvkJPQkk-18" value="&lt;font style=&quot;font-size: 14px;&quot;&gt;&lt;b&gt;API HTTP Request&lt;/b&gt;&lt;/font&gt;" style="text;html=1;align=center;verticalAlign=middle;resizable=0;points=[];autosize=1;strokeColor=none;fillColor=none;" vertex="1" parent="K1kgJDvs7Ww0QvkJPQkk-19">
          <mxGeometry y="20" width="150" height="30" as="geometry" />
        </mxCell>
        <mxCell id="K1kgJDvs7Ww0QvkJPQkk-1" value="" style="outlineConnect=0;dashed=0;verticalLabelPosition=bottom;verticalAlign=top;align=center;html=1;fontSize=12;fontStyle=0;aspect=fixed;pointerEvents=1;shape=mxgraph.aws4.network_load_balancer;fillColor=#6a00ff;strokeColor=#3700CC;fontColor=#ffffff;" vertex="1" parent="K1kgJDvs7Ww0QvkJPQkk-19">
          <mxGeometry x="168" width="84" height="84" as="geometry" />
        </mxCell>
        <mxCell id="K1kgJDvs7Ww0QvkJPQkk-30" value="" style="shape=flexArrow;endArrow=classic;html=1;rounded=0;entryX=0.037;entryY=0.022;entryDx=0;entryDy=0;entryPerimeter=0;exitX=0.05;exitY=0.95;exitDx=0;exitDy=0;exitPerimeter=0;" edge="1" parent="1" source="K1kgJDvs7Ww0QvkJPQkk-23" target="K1kgJDvs7Ww0QvkJPQkk-33">
          <mxGeometry width="50" height="50" relative="1" as="geometry">
            <mxPoint x="180" y="380" as="sourcePoint" />
            <mxPoint x="230" y="330" as="targetPoint" />
          </mxGeometry>
        </mxCell>
        <mxCell id="K1kgJDvs7Ww0QvkJPQkk-52" value="&lt;b&gt;&lt;font style=&quot;font-size: 24px;&quot;&gt;Main Server&lt;/font&gt;&lt;/b&gt;" style="text;html=1;align=center;verticalAlign=middle;resizable=0;points=[];autosize=1;strokeColor=none;fillColor=none;" vertex="1" parent="1">
          <mxGeometry x="-6.5" y="360" width="160" height="40" as="geometry" />
        </mxCell>
        <mxCell id="K1kgJDvs7Ww0QvkJPQkk-63" value="" style="endArrow=classic;startArrow=classic;html=1;rounded=0;exitX=1.02;exitY=0.131;exitDx=0;exitDy=0;exitPerimeter=0;entryX=-0.009;entryY=0.656;entryDx=0;entryDy=0;entryPerimeter=0;" edge="1" parent="1" source="K1kgJDvs7Ww0QvkJPQkk-5" target="K1kgJDvs7Ww0QvkJPQkk-43">
          <mxGeometry width="50" height="50" relative="1" as="geometry">
            <mxPoint x="70" y="330" as="sourcePoint" />
            <mxPoint x="120" y="280" as="targetPoint" />
          </mxGeometry>
        </mxCell>
        <mxCell id="K1kgJDvs7Ww0QvkJPQkk-65" value="&lt;font style=&quot;font-size: 18px;&quot;&gt;Socket Request (On, EMit)&lt;/font&gt;" style="text;html=1;align=center;verticalAlign=middle;resizable=0;points=[];autosize=1;strokeColor=none;fillColor=none;rotation=15;" vertex="1" parent="1">
          <mxGeometry x="-350" y="180" width="240" height="40" as="geometry" />
        </mxCell>
        <mxCell id="K1kgJDvs7Ww0QvkJPQkk-70" value="" style="group" vertex="1" connectable="0" parent="1">
          <mxGeometry x="-618" y="-80" width="208" height="130" as="geometry" />
        </mxCell>
        <mxCell id="K1kgJDvs7Ww0QvkJPQkk-67" value="" style="image;aspect=fixed;perimeter=ellipsePerimeter;html=1;align=center;shadow=0;dashed=0;spacingTop=3;image=img/lib/active_directory/mac_client.svg;" vertex="1" parent="K1kgJDvs7Ww0QvkJPQkk-70">
          <mxGeometry x="79" y="34.66666666666667" width="40.733333333333334" height="43.333333333333336" as="geometry" />
        </mxCell>
        <mxCell id="K1kgJDvs7Ww0QvkJPQkk-68" value="" style="rounded=0;whiteSpace=wrap;html=1;fillColor=none;" vertex="1" parent="K1kgJDvs7Ww0QvkJPQkk-70">
          <mxGeometry width="208" height="130" as="geometry" />
        </mxCell>
        <mxCell id="K1kgJDvs7Ww0QvkJPQkk-69" value="&lt;font style=&quot;font-size: 18px;&quot;&gt;Admin Apps&lt;/font&gt;" style="text;html=1;align=center;verticalAlign=middle;resizable=0;points=[];autosize=1;strokeColor=none;fillColor=none;" vertex="1" parent="K1kgJDvs7Ww0QvkJPQkk-70">
          <mxGeometry x="44" width="120" height="40" as="geometry" />
        </mxCell>
        <mxCell id="K1kgJDvs7Ww0QvkJPQkk-98" value="&lt;font style=&quot;font-size: 18px;&quot;&gt;Socket Request (On, EMit)&lt;/font&gt;" style="text;html=1;align=center;verticalAlign=middle;resizable=0;points=[];autosize=1;strokeColor=none;fillColor=none;rotation=15;" vertex="1" parent="1">
          <mxGeometry x="-350" y="67.5" width="240" height="40" as="geometry" />
        </mxCell>
        <mxCell id="K1kgJDvs7Ww0QvkJPQkk-99" value="" style="endArrow=classic;startArrow=classic;html=1;rounded=0;exitX=1;exitY=1;exitDx=0;exitDy=0;" edge="1" parent="1" source="K1kgJDvs7Ww0QvkJPQkk-68">
          <mxGeometry width="50" height="50" relative="1" as="geometry">
            <mxPoint x="-399" y="216" as="sourcePoint" />
            <mxPoint x="-60" y="150" as="targetPoint" />
          </mxGeometry>
        </mxCell>
        <mxCell id="K1kgJDvs7Ww0QvkJPQkk-100" value="" style="rounded=0;whiteSpace=wrap;html=1;fillColor=none;" vertex="1" parent="1">
          <mxGeometry x="-57" y="360" width="450" height="280" as="geometry" />
        </mxCell>
        <mxCell id="K1kgJDvs7Ww0QvkJPQkk-101" value="" style="endArrow=classic;startArrow=classic;html=1;rounded=0;exitX=1;exitY=0.5;exitDx=0;exitDy=0;entryX=0;entryY=0.5;entryDx=0;entryDy=0;" edge="1" parent="1" source="K1kgJDvs7Ww0QvkJPQkk-68" target="K1kgJDvs7Ww0QvkJPQkk-89">
          <mxGeometry width="50" height="50" relative="1" as="geometry">
            <mxPoint x="-396" y="-11" as="sourcePoint" />
            <mxPoint x="-60" y="-120" as="targetPoint" />
          </mxGeometry>
        </mxCell>
        <mxCell id="K1kgJDvs7Ww0QvkJPQkk-102" value="&lt;font style=&quot;font-size: 18px;&quot;&gt;API HTTP Request&lt;/font&gt;" style="text;html=1;align=center;verticalAlign=middle;resizable=0;points=[];autosize=1;strokeColor=none;fillColor=none;" vertex="1" parent="1">
          <mxGeometry x="-334" y="-45" width="180" height="40" as="geometry" />
        </mxCell>
        <mxCell id="K1kgJDvs7Ww0QvkJPQkk-103" value="" style="group" vertex="1" connectable="0" parent="1">
          <mxGeometry x="-60" y="-97.5" width="450" height="165" as="geometry" />
        </mxCell>
        <mxCell id="K1kgJDvs7Ww0QvkJPQkk-89" value="" style="swimlane;startSize=0;fontSize=14;fontStyle=1;container=0;" vertex="1" parent="K1kgJDvs7Ww0QvkJPQkk-103">
          <mxGeometry width="450" height="165" as="geometry" />
        </mxCell>
        <mxCell id="K1kgJDvs7Ww0QvkJPQkk-90" value="Authen&lt;br&gt;Author" style="rounded=1;whiteSpace=wrap;html=1;fillColor=none;fontSize=14;fontStyle=1;container=0;" vertex="1" parent="K1kgJDvs7Ww0QvkJPQkk-89">
          <mxGeometry x="10" y="82.5" width="80" height="55" as="geometry" />
        </mxCell>
        <mxCell id="K1kgJDvs7Ww0QvkJPQkk-93" value="Handle&lt;br&gt;etc...." style="rounded=1;whiteSpace=wrap;html=1;fillColor=none;fontSize=14;fontStyle=1;container=0;" vertex="1" parent="K1kgJDvs7Ww0QvkJPQkk-89">
          <mxGeometry x="120" y="80" width="80" height="60" as="geometry" />
        </mxCell>
        <mxCell id="K1kgJDvs7Ww0QvkJPQkk-91" value="" style="endArrow=classic;html=1;rounded=0;exitX=1;exitY=0.5;exitDx=0;exitDy=0;entryX=0;entryY=0.5;entryDx=0;entryDy=0;fontSize=14;fontStyle=1" edge="1" parent="K1kgJDvs7Ww0QvkJPQkk-89" source="K1kgJDvs7Ww0QvkJPQkk-90" target="K1kgJDvs7Ww0QvkJPQkk-93">
          <mxGeometry width="50" height="50" relative="1" as="geometry">
            <mxPoint x="-177" y="200" as="sourcePoint" />
            <mxPoint x="149" y="150" as="targetPoint" />
          </mxGeometry>
        </mxCell>
        <mxCell id="K1kgJDvs7Ww0QvkJPQkk-94" value="Auctions&lt;br&gt;Users&lt;br&gt;Dashboard&lt;br&gt;Logs&lt;br&gt;Message&lt;br&gt;" style="rounded=1;whiteSpace=wrap;html=1;fillColor=none;fontSize=14;fontStyle=1" vertex="1" parent="K1kgJDvs7Ww0QvkJPQkk-89">
          <mxGeometry x="230" y="60" width="190" height="90" as="geometry" />
        </mxCell>
        <mxCell id="K1kgJDvs7Ww0QvkJPQkk-92" value="&lt;b&gt;&lt;font style=&quot;font-size: 24px;&quot;&gt;Admin Server&lt;/font&gt;&lt;/b&gt;" style="text;html=1;align=center;verticalAlign=middle;resizable=0;points=[];autosize=1;strokeColor=none;fillColor=none;container=0;" vertex="1" parent="K1kgJDvs7Ww0QvkJPQkk-103">
          <mxGeometry x="78" y="10" width="180" height="40" as="geometry" />
        </mxCell>
        <mxCell id="K1kgJDvs7Ww0QvkJPQkk-106" value="" style="group" vertex="1" connectable="0" parent="1">
          <mxGeometry x="-57" y="90" width="497" height="260" as="geometry" />
        </mxCell>
        <mxCell id="K1kgJDvs7Ww0QvkJPQkk-43" value="" style="swimlane;startSize=0;fontSize=14;fontStyle=1;container=0;" vertex="1" parent="K1kgJDvs7Ww0QvkJPQkk-106">
          <mxGeometry width="450" height="260" as="geometry" />
        </mxCell>
        <mxCell id="K1kgJDvs7Ww0QvkJPQkk-60" value="Auction Raise&lt;br&gt;Notification&lt;br&gt;Message" style="rounded=1;whiteSpace=wrap;html=1;fillColor=none;fontSize=14;fontStyle=1;container=0;" vertex="1" parent="K1kgJDvs7Ww0QvkJPQkk-43">
          <mxGeometry x="247" y="150" width="190" height="100" as="geometry" />
        </mxCell>
        <mxCell id="K1kgJDvs7Ww0QvkJPQkk-54" value="Handle&lt;br&gt;etc...." style="rounded=1;whiteSpace=wrap;html=1;fillColor=none;fontSize=14;fontStyle=1;container=0;" vertex="1" parent="K1kgJDvs7Ww0QvkJPQkk-43">
          <mxGeometry x="147" y="150" width="80" height="100" as="geometry" />
        </mxCell>
        <mxCell id="K1kgJDvs7Ww0QvkJPQkk-44" value="Authen&lt;br&gt;Author" style="rounded=1;whiteSpace=wrap;html=1;fillColor=none;fontSize=14;fontStyle=1;container=0;" vertex="1" parent="K1kgJDvs7Ww0QvkJPQkk-43">
          <mxGeometry x="27" y="150" width="80" height="100" as="geometry" />
        </mxCell>
        <mxCell id="K1kgJDvs7Ww0QvkJPQkk-47" value="" style="endArrow=classic;html=1;rounded=0;exitX=1;exitY=0.5;exitDx=0;exitDy=0;entryX=0;entryY=0.5;entryDx=0;entryDy=0;fontSize=14;fontStyle=1" edge="1" parent="K1kgJDvs7Ww0QvkJPQkk-43" source="K1kgJDvs7Ww0QvkJPQkk-44" target="K1kgJDvs7Ww0QvkJPQkk-54">
          <mxGeometry width="50" height="50" relative="1" as="geometry">
            <mxPoint x="-180" y="200" as="sourcePoint" />
            <mxPoint x="146" y="150" as="targetPoint" />
          </mxGeometry>
        </mxCell>
        <mxCell id="K1kgJDvs7Ww0QvkJPQkk-53" value="&lt;b&gt;&lt;font style=&quot;font-size: 24px;&quot;&gt;Socket Server&lt;/font&gt;&lt;/b&gt;" style="text;html=1;align=center;verticalAlign=middle;resizable=0;points=[];autosize=1;strokeColor=none;fillColor=none;container=0;" vertex="1" parent="K1kgJDvs7Ww0QvkJPQkk-43">
          <mxGeometry x="107" width="180" height="40" as="geometry" />
        </mxCell>
        <mxCell id="K1kgJDvs7Ww0QvkJPQkk-61" value="&lt;b&gt;&lt;font style=&quot;font-size: 18px;&quot;&gt;CronJob1&lt;/font&gt;&lt;/b&gt;&lt;br&gt;Update Every 1 Minutes&lt;br&gt;- Update Incoming Auction&lt;br&gt;- Update In Progress Auction" style="rounded=0;whiteSpace=wrap;html=1;container=0;" vertex="1" parent="K1kgJDvs7Ww0QvkJPQkk-43">
          <mxGeometry x="27" y="40" width="170" height="80" as="geometry" />
        </mxCell>
        <mxCell id="K1kgJDvs7Ww0QvkJPQkk-62" value="&lt;b&gt;&lt;font style=&quot;font-size: 18px;&quot;&gt;CronJob2&lt;/font&gt;&lt;/b&gt;&lt;br&gt;Update Every 5 Minutes&lt;br&gt;- Update User Prestige&lt;br&gt;- Update Auction Status" style="rounded=0;whiteSpace=wrap;html=1;container=0;" vertex="1" parent="K1kgJDvs7Ww0QvkJPQkk-43">
          <mxGeometry x="247" y="40" width="170" height="80" as="geometry" />
        </mxCell>
        <mxCell id="K1kgJDvs7Ww0QvkJPQkk-59" value="" style="endArrow=none;html=1;rounded=0;exitX=0;exitY=0.5;exitDx=0;exitDy=0;entryX=1;entryY=0.5;entryDx=0;entryDy=0;" edge="1" parent="K1kgJDvs7Ww0QvkJPQkk-106" source="K1kgJDvs7Ww0QvkJPQkk-43" target="K1kgJDvs7Ww0QvkJPQkk-43">
          <mxGeometry width="50" height="50" relative="1" as="geometry">
            <mxPoint x="67" y="450" as="sourcePoint" />
            <mxPoint x="117" y="400" as="targetPoint" />
          </mxGeometry>
        </mxCell>
        <mxCell id="K1kgJDvs7Ww0QvkJPQkk-111" value="&lt;font style=&quot;font-size: 18px;&quot;&gt;Instance3&lt;/font&gt;" style="outlineConnect=0;dashed=0;verticalLabelPosition=bottom;verticalAlign=top;align=center;html=1;shape=mxgraph.aws3.instance;fillColor=#F58534;gradientColor=none;" vertex="1" parent="1">
          <mxGeometry x="160" y="550" width="100" height="60" as="geometry" />
        </mxCell>
        <mxCell id="K1kgJDvs7Ww0QvkJPQkk-115" value="" style="group" vertex="1" connectable="0" parent="1">
          <mxGeometry x="-70" y="660" width="420" height="100" as="geometry" />
        </mxCell>
        <mxCell id="K1kgJDvs7Ww0QvkJPQkk-33" value="" style="swimlane;startSize=0;fontSize=14;fontStyle=1" vertex="1" parent="K1kgJDvs7Ww0QvkJPQkk-115">
          <mxGeometry width="420" height="100" as="geometry" />
        </mxCell>
        <mxCell id="K1kgJDvs7Ww0QvkJPQkk-34" value="Authen" style="rounded=1;whiteSpace=wrap;html=1;fillColor=none;fontSize=14;fontStyle=1" vertex="1" parent="K1kgJDvs7Ww0QvkJPQkk-33">
          <mxGeometry x="10" y="20" width="80" height="70" as="geometry" />
        </mxCell>
        <mxCell id="K1kgJDvs7Ww0QvkJPQkk-36" value="Controller" style="rounded=1;whiteSpace=wrap;html=1;fillColor=none;fontSize=14;fontStyle=1" vertex="1" parent="K1kgJDvs7Ww0QvkJPQkk-33">
          <mxGeometry x="230" y="20" width="80" height="70" as="geometry" />
        </mxCell>
        <mxCell id="K1kgJDvs7Ww0QvkJPQkk-39" value="Model" style="rounded=1;whiteSpace=wrap;html=1;fillColor=none;fontSize=14;fontStyle=1" vertex="1" parent="K1kgJDvs7Ww0QvkJPQkk-33">
          <mxGeometry x="340" y="20" width="60" height="70" as="geometry" />
        </mxCell>
        <mxCell id="K1kgJDvs7Ww0QvkJPQkk-40" value="" style="endArrow=classic;html=1;rounded=0;entryX=0;entryY=0.5;entryDx=0;entryDy=0;exitX=1;exitY=0.5;exitDx=0;exitDy=0;fontSize=14;fontStyle=1" edge="1" parent="K1kgJDvs7Ww0QvkJPQkk-33" source="K1kgJDvs7Ww0QvkJPQkk-36" target="K1kgJDvs7Ww0QvkJPQkk-39">
          <mxGeometry width="50" height="50" relative="1" as="geometry">
            <mxPoint x="204" y="80" as="sourcePoint" />
            <mxPoint x="240" y="80" as="targetPoint" />
          </mxGeometry>
        </mxCell>
        <mxCell id="K1kgJDvs7Ww0QvkJPQkk-35" value="Author" style="rounded=1;whiteSpace=wrap;html=1;fillColor=none;fontSize=14;fontStyle=1" vertex="1" parent="K1kgJDvs7Ww0QvkJPQkk-115">
          <mxGeometry x="120" y="20" width="80" height="70" as="geometry" />
        </mxCell>
        <mxCell id="K1kgJDvs7Ww0QvkJPQkk-37" value="" style="endArrow=classic;html=1;rounded=0;exitX=1;exitY=0.5;exitDx=0;exitDy=0;entryX=0;entryY=0.5;entryDx=0;entryDy=0;fontSize=14;fontStyle=1" edge="1" parent="K1kgJDvs7Ww0QvkJPQkk-115" source="K1kgJDvs7Ww0QvkJPQkk-34" target="K1kgJDvs7Ww0QvkJPQkk-35">
          <mxGeometry width="50" height="50" relative="1" as="geometry">
            <mxPoint x="-180" y="200" as="sourcePoint" />
            <mxPoint x="-130" y="150" as="targetPoint" />
          </mxGeometry>
        </mxCell>
        <mxCell id="K1kgJDvs7Ww0QvkJPQkk-38" value="" style="endArrow=classic;html=1;rounded=0;entryX=0;entryY=0.5;entryDx=0;entryDy=0;exitX=1;exitY=0.5;exitDx=0;exitDy=0;fontSize=14;fontStyle=1" edge="1" parent="K1kgJDvs7Ww0QvkJPQkk-115" source="K1kgJDvs7Ww0QvkJPQkk-35" target="K1kgJDvs7Ww0QvkJPQkk-36">
          <mxGeometry width="50" height="50" relative="1" as="geometry">
            <mxPoint x="200" y="70" as="sourcePoint" />
            <mxPoint x="124" y="80" as="targetPoint" />
          </mxGeometry>
        </mxCell>
        <mxCell id="K1kgJDvs7Ww0QvkJPQkk-116" value="" style="endArrow=classic;startArrow=classic;html=1;rounded=0;exitX=1;exitY=1;exitDx=0;exitDy=0;entryX=0;entryY=0.25;entryDx=0;entryDy=0;" edge="1" parent="1" source="K1kgJDvs7Ww0QvkJPQkk-68" target="K1kgJDvs7Ww0QvkJPQkk-100">
          <mxGeometry width="50" height="50" relative="1" as="geometry">
            <mxPoint x="-400" y="-5" as="sourcePoint" />
            <mxPoint x="-50" y="-5" as="targetPoint" />
          </mxGeometry>
        </mxCell>
        <mxCell id="K1kgJDvs7Ww0QvkJPQkk-120" value="" style="outlineConnect=0;dashed=0;verticalLabelPosition=bottom;verticalAlign=top;align=center;html=1;shape=mxgraph.aws3.rds_db_instance_read_replica;fillColor=#2E73B8;gradientColor=none;" vertex="1" parent="1">
          <mxGeometry x="580.25" y="310" width="69.75" height="90" as="geometry" />
        </mxCell>
        <mxCell id="K1kgJDvs7Ww0QvkJPQkk-122" value="" style="outlineConnect=0;dashed=0;verticalLabelPosition=bottom;verticalAlign=top;align=center;html=1;shape=mxgraph.aws3.mysql_db_instance;fillColor=#2E73B8;gradientColor=none;" vertex="1" parent="1">
          <mxGeometry x="575" y="160" width="95" height="94.5" as="geometry" />
        </mxCell>
        <mxCell id="K1kgJDvs7Ww0QvkJPQkk-125" value="" style="endArrow=classic;startArrow=classic;html=1;rounded=0;entryX=0.998;entryY=0.827;entryDx=0;entryDy=0;entryPerimeter=0;" edge="1" parent="1" target="K1kgJDvs7Ww0QvkJPQkk-89">
          <mxGeometry width="50" height="50" relative="1" as="geometry">
            <mxPoint x="570" y="220" as="sourcePoint" />
            <mxPoint x="110" y="300" as="targetPoint" />
          </mxGeometry>
        </mxCell>
        <mxCell id="K1kgJDvs7Ww0QvkJPQkk-126" value="" style="endArrow=classic;startArrow=classic;html=1;rounded=0;exitX=1;exitY=0.5;exitDx=0;exitDy=0;" edge="1" parent="1" source="K1kgJDvs7Ww0QvkJPQkk-43">
          <mxGeometry width="50" height="50" relative="1" as="geometry">
            <mxPoint x="-390" y="5" as="sourcePoint" />
            <mxPoint x="570" y="220" as="targetPoint" />
          </mxGeometry>
        </mxCell>
        <mxCell id="K1kgJDvs7Ww0QvkJPQkk-127" value="" style="endArrow=classic;startArrow=classic;html=1;rounded=0;exitX=1.009;exitY=0.888;exitDx=0;exitDy=0;exitPerimeter=0;" edge="1" parent="1" source="K1kgJDvs7Ww0QvkJPQkk-89" target="K1kgJDvs7Ww0QvkJPQkk-120">
          <mxGeometry width="50" height="50" relative="1" as="geometry">
            <mxPoint x="-380" y="15" as="sourcePoint" />
            <mxPoint x="-30" y="15" as="targetPoint" />
          </mxGeometry>
        </mxCell>
        <mxCell id="K1kgJDvs7Ww0QvkJPQkk-128" value="" style="endArrow=classic;startArrow=classic;html=1;rounded=0;exitX=1;exitY=0.5;exitDx=0;exitDy=0;" edge="1" parent="1" source="K1kgJDvs7Ww0QvkJPQkk-43" target="K1kgJDvs7Ww0QvkJPQkk-120">
          <mxGeometry width="50" height="50" relative="1" as="geometry">
            <mxPoint x="-370" y="25" as="sourcePoint" />
            <mxPoint x="-20" y="25" as="targetPoint" />
          </mxGeometry>
        </mxCell>
        <mxCell id="K1kgJDvs7Ww0QvkJPQkk-129" value="" style="endArrow=classic;startArrow=classic;html=1;rounded=0;exitX=1.009;exitY=0.225;exitDx=0;exitDy=0;exitPerimeter=0;" edge="1" parent="1" source="K1kgJDvs7Ww0QvkJPQkk-100">
          <mxGeometry width="50" height="50" relative="1" as="geometry">
            <mxPoint x="403" y="230" as="sourcePoint" />
            <mxPoint x="580" y="340" as="targetPoint" />
          </mxGeometry>
        </mxCell>
        <mxCell id="K1kgJDvs7Ww0QvkJPQkk-130" value="" style="endArrow=classic;startArrow=classic;html=1;rounded=0;exitX=1.011;exitY=0.225;exitDx=0;exitDy=0;exitPerimeter=0;" edge="1" parent="1" source="K1kgJDvs7Ww0QvkJPQkk-100">
          <mxGeometry width="50" height="50" relative="1" as="geometry">
            <mxPoint x="413" y="240" as="sourcePoint" />
            <mxPoint x="570" y="220" as="targetPoint" />
          </mxGeometry>
        </mxCell>
      </root>
    </mxGraphModel>
  </diagram>
</mxfile>
